<?xml version="1.0" encoding="UTF-8" standalone="no"?>
<!-- Created with Inkscape (http://www.inkscape.org/) -->

<svg
   xmlns:dc="http://purl.org/dc/elements/1.1/"
   xmlns:cc="http://creativecommons.org/ns#"
   xmlns:rdf="http://www.w3.org/1999/02/22-rdf-syntax-ns#"
   xmlns:svg="http://www.w3.org/2000/svg"
   xmlns="http://www.w3.org/2000/svg"
   xmlns:sodipodi="http://sodipodi.sourceforge.net/DTD/sodipodi-0.dtd"
   xmlns:inkscape="http://www.inkscape.org/namespaces/inkscape"
   width="425.97363"
   height="161.78067"
   id="svg2"
   version="1.1"
   inkscape:version="0.48.3.1 r9886"
   sodipodi:docname="New document 1">
  <defs
     id="defs4" />
  <sodipodi:namedview
     id="base"
     pagecolor="#ffffff"
     bordercolor="#666666"
     borderopacity="1.0"
     inkscape:pageopacity="0.0"
     inkscape:pageshadow="2"
     inkscape:zoom="0.49497475"
     inkscape:cx="367.58822"
     inkscape:cy="43.205626"
     inkscape:document-units="px"
     inkscape:current-layer="layer1"
     showgrid="false"
     fit-margin-top="0"
     fit-margin-left="0"
     fit-margin-right="0"
     fit-margin-bottom="0"
     inkscape:window-width="836"
     inkscape:window-height="819"
     inkscape:window-x="122"
     inkscape:window-y="108"
     inkscape:window-maximized="0" />
  <metadata
     id="metadata7">
    <rdf:RDF>
      <cc:Work
         rdf:about="">
        <dc:format>image/svg+xml</dc:format>
        <dc:type
           rdf:resource="http://purl.org/dc/dcmitype/StillImage" />
        <dc:title></dc:title>
      </cc:Work>
    </rdf:RDF>
  </metadata>
  <g
     inkscape:label="Layer 1"
     inkscape:groupmode="layer"
     id="layer1"
     transform="translate(-111.00306,-135.61078)">
    <path
       style="fill:#000000"
       d="m 282.9486,216.50111 0,-80.89033 127.01405,0 127.01405,0 0,80.89033 0,80.89034 -127.01405,0 -127.01405,0 0,-80.89034 z m 29.57739,52.14912 -0.14165,-6.02702 1.9701,9.2e-4 c 1.44254,4.7e-4 1.97011,-0.18539 1.97011,-0.69452 l 0,-0.69533 -4.86732,0 -4.86733,0 0,0.69533 c 0,0.50913 0.52758,0.69512 1.97011,0.69452 l 1.97011,-9.2e-4 -0.14166,6.02702 -0.14166,6.02703 1.21043,0 1.21043,0 -0.14167,-6.02703 z m 21.76552,4.98403 c 3.85196,-4.11201 1.9553,-12.4001 -2.83765,-12.4001 -3.93758,0 -5.37793,1.90207 -5.38833,7.11557 l -0.006,3.17535 1.57609,1.57609 1.57609,1.57609 2.05155,0 c 1.529,0 2.3004,-0.26566 3.02858,-1.043 z m -4.60385,-0.66029 c -1.00919,-0.26695 -1.77586,-2.52341 -1.76791,-5.20332 0.009,-3.1553 0.39154,-4.07902 1.95565,-4.7269 l 1.41014,-0.5841 1.21116,0.67753 1.21116,0.67753 0.24672,4.38827 c 0.13569,2.41356 0.0712,4.59688 -0.14335,4.85183 -0.21691,0.25777 -0.23875,0.0664 -0.0492,-0.43112 l 0.34086,-0.89467 -1.11187,0.77879 c -1.09822,0.76921 -1.78905,0.8667 -3.30335,0.46616 z m 24.37235,1.16811 c -0.21203,-0.34309 -0.12635,-0.40885 0.23874,-0.18321 0.33612,0.20773 1.03034,-0.081 1.69407,-0.70452 l 1.12457,-1.05648 0,-5.51584 0,-5.51585 -0.81122,0.15538 -0.81123,0.15537 -0.13256,5.07554 -0.13256,5.07553 -0.75051,0.8293 c -1.00243,1.10767 -3.48811,1.07227 -4.51671,-0.0643 l -0.80871,-0.89362 -0.0744,-5.00975 -0.0744,-5.00975 -0.81123,-0.15684 -0.81122,-0.15684 0,5.40053 0,5.40053 1.35501,1.35501 1.355,1.35501 2.14902,0 c 1.50637,0 2.0501,-0.16005 1.81825,-0.53518 z m 23.91735,-0.19678 0,-0.73195 -3.47774,0.15251 c -2.10312,0.0922 -3.48516,-0.0307 -3.49651,-0.31105 -0.0103,-0.25495 -0.062,-2.9636 -0.11481,-6.01921 l -0.096,-5.55566 -0.81122,-0.15688 -0.81123,-0.15688 0,6.75554 0,6.75554 4.40378,0 4.40377,0 0,-0.73196 z m 17.6978,-0.59757 1.488,-1.32954 0.19284,-3.02839 c 0.33914,-5.32609 -1.33396,-7.75564 -5.3409,-7.75564 l -1.81186,0 -1.3615,1.42111 -1.36151,1.4211 0,3.87934 0,3.87934 1.36151,1.42111 1.3615,1.4211 1.99196,0 1.99196,0 1.488,-1.32953 z m -5.45764,-1.03623 -0.88307,-0.97509 0.0286,-2.84924 c 0.0158,-1.56708 0.12007,-3.47503 0.23178,-4.2399 l 0.20312,-1.39066 1.39066,-0.087 c 0.76487,-0.0478 1.96432,0.1339 2.66545,0.4039 l 1.27477,0.4909 0,1.33443 c 0,0.73393 0.17369,1.33442 0.38597,1.33442 0.6685,0 -0.27923,5.13993 -1.11878,6.06763 -1.05826,1.16936 -3.07773,1.12616 -4.17856,-0.0894 z m 26.68312,1.06174 1.30401,-1.30401 0.0698,-5.45514 0.0698,-5.45515 -0.83004,0.16046 -0.83004,0.16046 -0.074,5.07711 -0.074,5.07711 -1.02039,0.82626 c -1.39967,1.13338 -3.11903,1.03571 -4.25697,-0.24184 l -0.95138,-1.06809 0.0851,-4.95812 0.0851,-4.95813 -0.95289,0 -0.9529,0 0,5.36654 0,5.36655 1.35501,1.355 1.355,1.35501 2.15732,0 2.15732,0 1.30401,-1.30402 z m 20.66459,0.1662 c 2.41729,-2.41728 1.01143,-5.61241 -2.78121,-6.32095 -3.53933,-0.66122 -4.59298,-1.8867 -3.04797,-3.54507 0.63762,-0.68441 0.7426,-1.04507 0.34766,-1.19445 -0.31116,-0.1177 0.37294,-0.10471 1.52024,0.0289 1.1473,0.13358 2.43839,0.42371 2.86908,0.64474 0.91622,0.47018 1.65433,-0.36176 0.94781,-1.06828 -1.95433,-1.95433 -7.29602,-0.45785 -7.79141,2.18277 -0.5017,2.67432 0.60309,3.68703 5.10306,4.67775 l 1.82388,0.40155 0.33832,1.27629 0.33833,1.27628 -0.99057,0.69383 c -1.24072,0.86903 -3.41747,0.88632 -5.0396,0.04 l -1.24222,-0.6481 -0.28956,0.75461 c -0.4605,1.20003 1.0788,1.93795 4.04255,1.93795 l 2.7138,0 1.13781,-1.13782 z m 21.07069,0.44248 0,-0.69533 -3.24489,0 -3.24488,0 0,-2.31777 0,-2.31778 2.78133,0 2.78133,0 0,-0.69533 0,-0.69533 -2.78133,0 -2.78133,0 0,-2.31778 0,-2.31777 3.24488,0 3.24489,0 0,-0.69533 0,-0.69534 -4.40378,0 -4.40377,0 0,6.72155 0,6.72155 4.40377,0 4.40378,0 0,-0.69534 z m 25.95907,-6.02621 0,-6.72155 -0.92711,0 -0.92711,0 0,6.72155 0,6.72155 0.92711,0 0.92711,0 0,-6.72155 z m 13.90665,0 0,-6.72155 -0.92711,0 -0.92711,0 0,6.72155 0,6.72155 0.92711,0 0.92711,0 0,-6.72155 z m 13.90665,0 0,-6.72155 -0.92711,0 -0.92711,0 0,6.72155 0,6.72155 0.92711,0 0.92711,0 0,-6.72155 z m 0,-27.81329 0,-0.69534 -102.41828,0 c -56.71162,0 -102.52831,0.17802 -102.66482,0.3989 -0.13559,0.2194 -0.11314,0.5323 0.0499,0.69533 0.16304,0.16304 46.36221,0.29644 102.66482,0.29644 l 102.36838,0 0,-0.69533 z m -200.95106,-27.23354 0,-4.05578 3.05173,-3.2e-4 c 1.67846,-1.8e-4 3.19618,-0.14477 3.37272,-0.32131 0.17654,-0.17654 0.77736,-0.39062 1.33514,-0.47575 3.35899,-0.51262 5.61454,-5.86418 3.72515,-8.83833 -2.1119,-3.3244 -3.46008,-3.80802 -10.61558,-3.80802 l -4.80938,0 0,10.92019 0,10.92019 1.97011,-0.14254 1.97011,-0.14254 0,-4.05579 z m 0.20451,-7.99664 c -0.015,-0.12748 -0.0377,-1.53553 -0.0504,-3.129 l -0.0231,-2.89721 3.10743,0 3.10744,0 1.08342,1.35875 1.08341,1.35874 -0.6686,1.29295 c -0.36774,0.71113 -1.06994,1.50774 -1.56045,1.77025 -0.89074,0.47671 -6.02756,0.68417 -6.07916,0.24552 z m 23.20501,11.58887 c 1.51908,-0.86838 2.35509,-0.86838 2.02185,0 l -0.26682,0.69534 1.853,0 1.85299,0 0.0723,-5.58632 c 0.0907,-7.00677 -0.35904,-8.42857 -3.06864,-9.70223 -2.9574,-1.39014 -8.05521,-0.91164 -9.14939,0.8588 -0.33614,0.54387 0.86976,1.54801 1.31925,1.09852 0.189,-0.189 0.27411,-0.0307 0.18913,0.35169 -0.0952,0.42816 0.11265,0.62731 0.54081,0.5183 3.91475,-0.99669 5.46885,-0.73839 6.29948,1.04699 0.85318,1.83386 -0.0456,2.39521 -3.58487,2.23898 l -3.07983,-0.13595 -1.25764,1.08178 c -0.86597,0.74487 -1.3251,1.66572 -1.47422,2.95673 l -0.21658,1.87495 1.2091,1.43693 c 1.63712,1.94561 4.58286,2.49869 6.74011,1.26549 z m -3.77945,-3.07445 c -0.85329,-0.45479 -1.27837,-0.83565 -0.94463,-0.84633 0.33374,-0.0107 0.49687,-0.1973 0.36251,-0.4147 -0.78223,-1.26568 1.13199,-2.07341 4.68262,-1.97589 l 1.94349,0.0534 -0.17275,0.89703 c -0.26909,1.39729 -1.14016,2.80749 -1.76043,2.85004 -0.30973,0.0212 -1.01229,0.0892 -1.56125,0.151 -0.54897,0.0618 -1.69627,-0.25973 -2.54956,-0.71453 z m 22.7852,3.07445 c 1.50233,-0.85881 1.85422,-0.85375 1.85422,0.0266 l 0,0.72199 1.97011,-0.14254 1.97011,-0.14255 0,-7.88043 0,-7.88043 -1.97011,-0.14255 -1.97011,-0.14254 0,5.58931 0,5.58932 -0.93754,0.93754 c -0.98676,0.98676 -4.4848,1.15955 -4.48096,0.22134 9.3e-4,-0.25495 -0.031,-3.13519 -0.0711,-6.40053 l -0.073,-5.93698 -1.97011,0.14254 -1.9701,0.14255 -0.12963,6.18301 -0.12963,6.18301 1.86849,1.81331 c 2.0541,1.99344 3.90772,2.33657 6.03942,1.11798 z m 18.45568,-1.04299 0.14526,-1.50656 -1.42003,0 -1.42004,0 0,-9.2711 0,-9.27109 -2.086,0 -2.08599,0 0,9.00175 0,9.00175 0.79812,1.39066 c 0.83395,1.45307 2.7915,2.37324 4.76453,2.23962 l 1.15889,-0.0785 0.14526,-1.50655 z m 23.4071,1.00159 c 1.18921,-0.40521 2.68657,-1.35991 3.32746,-2.12157 l 1.16525,-1.38482 -0.0339,-2.16632 c -0.06,-3.83834 -2.84915,-6.45879 -6.96616,-6.54488 -1.8701,-0.0391 -3.85446,-0.87577 -4.48972,-1.89299 l -0.57712,-0.92411 0.73315,-1.11892 c 1.31103,-2.0009 5.03838,-2.44813 7.42474,-0.89088 l 0.95834,0.62538 1.24677,-1.30134 1.24675,-1.30134 -1.97332,-1.10944 -1.97332,-1.10943 -3.01311,0.0101 c -4.49596,0.0151 -7.12514,1.69864 -7.88003,5.04575 -0.99978,4.43288 2.00083,7.33371 7.64825,7.39393 1.34349,0.0143 2.4759,0.27238 2.69393,0.61391 0.20689,0.32405 0.51979,0.50042 0.69534,0.39193 0.17555,-0.10849 0.31917,0.8059 0.31917,2.03198 0,1.22608 -0.17977,2.11814 -0.39949,1.98234 -0.21972,-0.13579 -0.54758,-0.007 -0.72857,0.28556 -0.52573,0.85065 -5.86966,0.74283 -7.22586,-0.14578 l -1.1584,-0.75902 -0.95834,0.51289 c -0.52708,0.28209 -0.84848,0.79917 -0.71422,1.14906 0.16801,0.43783 -10e-4,0.55117 -0.54349,0.36353 l -0.78761,-0.27264 0.96926,1.02086 c 2.12113,2.23404 7.05317,2.95909 10.99423,1.61623 z m 17.02016,-0.20031 c 1.0141,-0.87953 2.19673,-0.47427 1.57091,0.53832 -0.11587,0.18748 0.628,0.3293 1.65303,0.31516 l 1.8637,-0.0257 0,-5.99459 c 0,-6.88344 -0.41459,-8.16106 -3.0548,-9.41392 -2.13054,-1.01101 -6.46044,-0.79719 -8.30288,0.41002 l -1.27269,0.8339 1.18953,1.18952 c 0.88271,0.88271 1.34583,1.06309 1.79552,0.69932 2.19595,-1.77638 6.14134,-0.43445 5.85601,1.99178 l -0.15091,1.28314 -3.36518,-0.11173 -3.36519,-0.11174 -1.38625,1.38625 c -2.32038,2.32039 -1.10121,7.02805 1.97341,7.62005 2.44934,0.4716 3.96182,0.28699 4.99579,-0.60976 z m -2.51055,-2.28614 c -1.86671,-0.26232 -2.89484,-1.57595 -2.16178,-2.76206 0.50088,-0.81045 3.17633,-1.27483 5.3562,-0.92968 1.01982,0.16148 1.61955,0.3232 1.33272,0.35937 -0.28682,0.0362 -0.64439,0.68024 -0.79459,1.43124 -0.33816,1.69078 -1.39582,2.22949 -3.73255,1.90113 z m 17.33285,2.79826 c 0,-0.23371 -0.26075,-0.51209 -0.57945,-0.61862 -0.31869,-0.10654 -0.0121,-0.30239 0.68131,-0.43523 0.69341,-0.13283 1.15691,-0.0735 1.03001,0.13182 -0.35864,0.58029 1.42308,1.34714 3.12553,1.34522 1.95769,-0.002 4.44113,-1.50542 5.02525,-3.04176 0.73856,-1.94257 0.55593,-8.65816 -0.28109,-10.336 -1.30441,-2.61475 -5.23928,-3.71221 -7.53773,-2.10231 -1.42564,0.99856 -1.57539,0.73125 -1.64003,-2.92755 l -0.0556,-3.14595 -1.73833,-0.14387 -1.73833,-0.14387 0,10.61249 c 0,5.83686 0.13906,10.75155 0.30903,10.92152 0.46922,0.46921 3.39941,0.36932 3.39941,-0.11589 z m 1.75655,-2.98837 c -1.75544,-1.33369 -2.27142,-5.1189 -1.08488,-7.95869 l 0.67168,-1.60755 1.32572,0 c 2.72314,0 3.97317,2.82893 3.16159,7.15499 -0.42245,2.25186 -2.59302,3.53651 -4.07411,2.41125 z m 20.29606,2.65322 1.16002,-0.76007 0.58246,0.79656 c 0.40356,0.5519 1.07451,0.74976 2.18444,0.64418 l 1.60198,-0.15237 0,-6.02622 0,-6.02621 -0.83836,-1.23484 c -1.8593,-2.73857 -7.68283,-3.59914 -10.75109,-1.58873 l -1.27269,0.8339 1.15808,1.15807 1.15807,1.15808 0.95464,-0.5109 c 1.26977,-0.67957 4.3978,-0.65172 5.09487,0.0453 0.30595,0.30594 0.55627,1.14034 0.55627,1.85422 l 0,1.29795 -1.97011,0.0513 c -1.08356,0.0282 -2.46996,0.009 -3.08089,-0.042 -2.34311,-0.19694 -4.68366,2.16772 -4.68366,4.73192 0,3.32135 5.17521,5.71638 8.14597,3.76986 z m -3.74687,-2.95592 c -0.16014,-0.25912 -0.47699,-0.35627 -0.70411,-0.21591 -0.22712,0.14037 -0.19216,-0.37811 0.0777,-1.15217 0.61287,-1.7581 0.78796,-1.86164 3.25566,-1.92532 2.686,-0.0693 3.99806,0.0757 3.28577,0.36308 -0.31869,0.12859 -0.57944,0.6962 -0.57944,1.26135 0,0.56515 -0.25032,1.27787 -0.55627,1.58382 -0.67623,0.67623 -4.37327,0.74209 -4.77929,0.0851 z m 22.48709,2.09355 0,-1.62244 -1.36331,0 c -1.7928,0 -1.80574,-0.0345 -1.92054,-5.12228 l -0.0989,-4.38059 1.69135,-0.14388 1.69135,-0.14387 0,-1.39761 0,-1.39762 -1.27478,0.0841 c -2.12496,0.14011 -2.20188,0.0627 -2.20188,-2.21589 l 0,-2.20207 -1.78515,-0.14667 -1.78514,-0.14666 0.1627,2.29014 c 0.10155,1.4293 -0.0551,2.49321 -0.41674,2.83038 -0.36348,0.33889 -0.57944,0.36067 -0.57944,0.0584 0,-0.26501 -0.2086,-0.48183 -0.46356,-0.48183 -0.25495,0 -0.46355,0.64811 -0.46355,1.44026 0,1.0524 0.17692,1.37237 0.65696,1.18816 0.96251,-0.36935 1.19726,0.67381 1.19726,5.3204 0,4.19373 0.53953,6.25208 1.48554,5.66741 0.28899,-0.1786 0.38202,-0.1062 0.21362,0.16627 -0.56255,0.91024 1.30119,1.81162 3.97938,1.92459 l 1.27478,0.0538 0,-1.62244 z m 8.66188,-6.60565 0.0861,-7.99632 -2.05623,0 -2.05622,0 0,7.80317 c 0,8.60784 -0.0234,8.52308 2.30121,8.32742 l 1.63901,-0.13795 0.0861,-7.99632 z m 15.94236,7.4771 c 2.85423,-0.93357 3.14854,-1.38547 1.75878,-2.70053 l -1.09928,-1.04018 -1.03114,0.66895 c -2.3756,1.54118 -5.08635,0.77283 -6.42821,-1.82203 l -0.67667,-1.30854 5.57457,0 5.57456,0 0,-1.70786 c 0,-3.90947 -2.77503,-7.10154 -6.48351,-7.45788 -2.27445,-0.21855 -5.39128,0.91121 -4.86467,1.76329 0.14906,0.24118 -0.0108,0.33037 -0.35525,0.19819 -0.38389,-0.14731 -1.02113,0.46224 -1.64652,1.57498 -2.19847,3.91164 -0.4627,12.2184 2.12905,10.18885 l 0.79091,-0.61935 -0.63528,0.81012 -0.63529,0.81011 1.5624,0.6783 c 2.04705,0.88869 3.66505,0.87958 6.46555,-0.0364 z m -6.77712,-9.79488 c 0.86503,-3.52833 5.26522,-3.64632 6.26281,-0.16793 l 0.41376,1.44271 -3.49455,0 -3.49456,0 0.31254,-1.27478 z m 19.33434,4.99248 0.15471,-5.55339 1.16156,-1.16029 1.16156,-1.16028 1.29414,0.6714 1.29414,0.67141 1.36863,-1.21945 c 1.71394,-1.52713 1.70705,-1.74066 -0.0801,-2.48091 -1.40845,-0.58339 -3.08647,-0.37285 -5.62052,0.70522 -0.57922,0.24642 -0.81122,0.13208 -0.81122,-0.39981 0,-0.56004 -0.46019,-0.74492 -1.85422,-0.74492 l -1.85422,0 0,7.80317 c 0,8.5539 -0.0335,8.42125 2.12444,8.42125 l 1.50636,0 0.15471,-5.5534 z m -28.43834,-15.21888 0.14737,-1.53474 -2.00159,0.14408 -2.00157,0.14408 -0.14736,1.53475 -0.14737,1.53474 2.00159,-0.14408 2.00158,-0.14408 0.14735,-1.53475 z M 344.00015,185.57573 c 4.0968,-1.77741 4.89152,-4.20002 4.68158,-14.27122 l -0.14011,-6.72155 -1.97011,-0.14254 -1.97011,-0.14254 0,7.37436 c 0,9.74684 -0.61468,11.22114 -4.67843,11.22114 -1.55346,0 -3.64928,-1.76423 -3.69205,-3.10792 -0.0145,-0.45776 -0.0667,-4.06559 -0.11589,-8.0174 l -0.0894,-7.1851 -1.97011,-0.14254 -1.97011,-0.14254 0,7.89771 c 0,9.32133 0.38055,10.76278 3.34968,12.688 l 1.935,1.25468 2.66673,0 c 1.4667,0 3.2502,-0.25314 3.96332,-0.56254 z m 14.5079,-5.21559 0,-5.77813 0.98035,-0.52466 c 0.53918,-0.28857 1.63433,-0.39672 2.43366,-0.24035 0.79933,0.15638 1.66192,0.31523 1.91687,0.35301 0.28991,0.043 0.41049,2.29749 0.3219,6.01847 l -0.14166,5.94979 2.11177,0 2.11176,0 0,-5.95767 0,-5.95765 -1.07683,-1.57511 c -0.59226,-0.86631 -1.42441,-1.54651 -1.84923,-1.51156 -0.42482,0.035 -0.65803,-0.12149 -0.51825,-0.34767 0.44584,-0.72138 -4.17642,-0.44862 -5.26008,0.31041 l -1.03026,0.72162 0,-0.72162 c 0,-0.54622 -0.50704,-0.72162 -2.086,-0.72162 l -2.08599,0 0,7.88043 0,7.88044 2.08599,0 2.086,0 0,-5.77813 z m 19.46931,-2.10231 0,-7.88043 -2.086,0 -2.086,0 0,7.88043 0,7.88044 2.086,0 2.086,0 0,-7.88044 z m 14.30804,3.96171 c 0.84375,-2.15531 1.37928,-4.16924 1.19006,-4.4754 -0.20256,-0.32776 -0.14839,-0.43575 0.13174,-0.26262 0.5168,0.3194 2.04631,-3.23892 2.15225,-5.00711 0.0356,-0.59451 0.22122,-0.98434 0.41244,-0.86628 0.19122,0.11806 0.34767,-0.12256 0.34767,-0.53469 l 0,-0.74935 -1.93112,0.14254 -1.93112,0.14255 -1.53501,4.58639 c -1.80158,5.38282 -1.84224,5.44342 -2.49684,3.7217 -0.35905,-0.94437 -0.60979,-1.15078 -0.87556,-0.72075 l -0.37243,0.6026 -0.27961,-0.72864 c -0.15378,-0.40075 -0.0994,-0.67899 0.12091,-0.6183 0.41588,0.11455 0.49323,-0.0905 0.49323,-1.3077 0,-0.42823 -0.21805,-0.58792 -0.53518,-0.39193 -0.33522,0.20718 -0.40919,0.12691 -0.19798,-0.21484 0.18546,-0.30008 -0.008,-1.5839 -0.42918,-2.85295 l -0.76639,-2.30736 -2.04874,0 c -1.12681,0 -2.04874,0.0689 -2.04874,0.15303 0,0.85917 2.2423,5.33937 2.53785,5.07072 0.21566,-0.19603 0.24535,-0.101 0.066,0.21118 -0.39215,0.68249 2.97657,9.44257 3.50547,9.1157 0.20342,-0.12572 0.24562,0.0952 0.0938,0.49083 l -0.27607,0.71941 1.56924,0 1.56924,0 1.5341,-3.91873 z m 19.67879,2.78789 1.30622,-0.87121 -1.184,-1.18401 -1.18401,-1.184 -0.56259,0.56258 c -0.30942,0.30943 -0.92068,0.56259 -1.35835,0.56259 -0.43767,0 -0.87478,0.23702 -0.97134,0.52671 -0.12674,0.38022 -0.42757,0.38963 -1.08163,0.0338 -0.49833,-0.27108 -1.25895,-0.60119 -1.69027,-0.73357 -1.0088,-0.30964 -2.39936,-2.42102 -2.00972,-3.05147 0.17864,-0.28904 2.3648,-0.48395 5.42824,-0.48395 l 5.12915,0 -0.21083,-2.54236 c -0.21323,-2.57126 -1.42191,-4.67351 -2.35533,-4.09663 -0.26044,0.16097 -0.33331,0.0661 -0.16206,-0.21099 0.59632,-0.96487 -1.67525,-1.95756 -4.47945,-1.95756 l -2.71459,0 -1.77034,1.73833 c -3.98653,3.91447 -3.40638,10.73005 1.14781,13.48442 1.41928,0.85837 7.12916,0.4704 8.72309,-0.59272 z m -8.49131,-8.73601 c 0,-0.45514 0.34112,-1.34815 0.75805,-1.98447 l 0.75806,-1.15694 1.98424,0.13025 c 1.09134,0.0716 1.90488,0.2098 1.80787,0.30703 -0.097,0.0972 0.12915,0.61299 0.50258,1.14614 0.37343,0.53315 0.67897,1.288 0.67897,1.67744 l 0,0.70808 -3.24489,0 -3.24488,0 0,-0.82753 z m 19.43594,4.5059 -0.0559,-5.36094 0.85462,-0.94434 0.85461,-0.94434 1.9022,0.26072 1.9022,0.26073 1.27504,-1.33086 1.27504,-1.33085 -0.94363,-0.50502 c -1.38216,-0.73971 -4.81198,-0.61591 -6.00055,0.2166 l -1.03025,0.72162 0,-0.72162 c 0,-0.54622 -0.50705,-0.72162 -2.086,-0.72162 l -2.086,0 0,7.88043 0,7.88044 2.09727,0 2.09726,0 -0.0559,-5.36095 z m 20.5817,4.72886 c 0.83204,-0.34765 1.86833,-1.17471 2.30288,-1.83791 0.8453,-1.29009 1.10611,-4.26979 0.33184,-3.79128 -0.25448,0.15728 -0.34501,-0.0119 -0.2036,-0.38038 0.40786,-1.06286 -1.91781,-2.51705 -4.56189,-2.85245 -1.33371,-0.16919 -2.80213,-0.41474 -3.26317,-0.54567 -1.23398,-0.35045 -0.79653,-2.11912 0.7011,-2.83464 l 1.25352,-0.59889 1.70031,0.71044 c 2.05983,0.86065 1.71433,0.87909 2.90683,-0.15516 1.30035,-1.12779 1.25913,-1.64795 -0.18266,-2.30488 -1.58298,-0.72125 -7.62685,-0.71899 -7.62685,0.003 0,0.29745 -0.14198,0.39883 -0.31552,0.22529 -0.6906,-0.6906 -2.92936,2.16823 -2.92936,3.7407 0,3.08019 2.20379,4.76429 6.23445,4.76429 2.07639,0 3.03665,0.6193 3.03665,1.95841 0,1.7051 -4.56851,2.20468 -6.89196,0.75367 l -0.82525,-0.51538 -1.19797,1.19796 c -1.29318,1.29318 -1.1212,1.71246 1.05972,2.58348 1.6869,0.67372 6.74224,0.60184 8.47093,-0.12046 z m 11.90051,-7.24835 0,-7.88043 -2.086,0 -2.08599,0 0,7.5714 c 0,8.42598 -0.0692,8.18947 2.39503,8.18947 l 1.77696,0 0,-7.88044 z m 12.97954,6.21513 0,-1.68771 -0.8758,0.22903 c -1.66302,0.43489 -1.96637,-0.29193 -2.05329,-4.91965 l -0.084,-4.47286 1.50656,2.6e-4 1.50655,2.5e-4 0,-1.39066 0,-1.39067 -1.50655,2.9e-4 -1.50656,2.9e-4 0.15661,-2.25845 0.15661,-2.25846 -2.12672,-0.0427 -2.12671,-0.0427 0,2.48924 0,2.48923 -0.92711,-0.24244 -0.92711,-0.24245 0,1.44474 0,1.44473 0.92711,0 0.92711,0 0.0549,4.0561 c 0.0302,2.23086 0.026,4.22532 -0.009,4.43213 -0.3016,1.76249 2.23694,3.72749 5.0681,3.92306 l 1.83978,0.12709 0,-1.68771 z m 14.55771,1.13013 c -0.20184,-0.32659 -0.12748,-0.40955 0.19081,-0.21283 0.28686,0.17728 1.18121,-0.0188 1.98744,-0.43569 l 1.46588,-0.75804 -1.1295,-1.12949 -1.1295,-1.12949 -1.59754,0.64685 c -1.96057,0.79384 -5.1177,1.41191 -4.20173,0.82257 l 0.64069,-0.41223 -0.98728,-0.31335 c -0.54301,-0.17234 -1.11468,-0.82095 -1.27039,-1.44135 -0.15571,-0.62039 -0.52124,-1.13433 -0.8123,-1.14208 -0.29105,-0.008 -0.13703,-0.24189 0.34228,-0.52031 0.50503,-0.29336 2.87996,-0.47172 5.64826,-0.42419 l 4.77679,0.082 -0.01,-1.53183 c -0.0128,-2.03807 -0.82582,-4.61886 -1.35253,-4.29334 -0.23149,0.14307 -0.31887,-0.0114 -0.19418,-0.34339 0.42772,-1.13866 -2.63442,-2.68952 -5.31042,-2.68952 -4.15861,0 -6.70678,2.40919 -7.31073,6.912 -0.49023,3.65493 2.33145,8.81897 4.5078,8.24984 0.50818,-0.13289 0.80706,-0.0525 0.66419,0.1787 -0.14456,0.2339 0.99807,0.42033 2.57627,0.42033 2.02569,0 2.74153,-0.15292 2.50528,-0.53518 z m -6.25586,-7.57703 c -0.30436,-1.67397 0.0283,-3.16311 0.88496,-3.96119 0.55627,-0.51824 1.0114,-0.80429 1.0114,-0.63566 0,0.16863 0.3129,0.0469 0.69533,-0.27048 l 0.69533,-0.57708 0.67503,0.56022 c 0.37126,0.30813 0.89793,0.42247 1.17037,0.25409 0.27244,-0.16838 0.44586,-0.13419 0.38538,0.076 -0.0605,0.21017 0.15647,0.86304 0.48213,1.45082 0.94333,1.70264 0.47135,2.06936 -2.73435,2.12462 -2.12503,0.0366 -2.95809,0.21942 -2.87578,0.63101 0.0637,0.31869 0.0116,0.57944 -0.11588,0.57944 -0.12748,0 -0.25075,-0.1043 -0.27392,-0.23177 z m -98.69506,-12.05243 0,-1.62244 -2.086,0 -2.086,0 0,1.3134 c 0,1.71357 0.27021,1.93148 2.39504,1.93148 l 1.77696,0 0,-1.62244 z m 77.41367,0 0,-1.62244 -2.086,0 -2.08599,0 0,1.62244 0,1.62244 2.08599,0 2.086,0 0,-1.62244 z m 26.41392,0.24401 0.98153,-1.37844 -0.51198,-1.05522 -0.51198,-1.05524 0.64432,0.79509 0.64433,0.79509 0.54013,-0.54013 c 0.94015,-0.94015 0.59422,-1.28182 -1.29778,-1.28182 -1.94726,0 -3.14732,1.20143 -2.60686,2.60985 0.14419,0.37575 0.0778,0.56925 -0.14751,0.42999 -0.39117,-0.24176 -0.97037,0.73333 -0.97037,1.63362 0,1.03414 2.30448,0.35565 3.23617,-0.95279 z M 182.1254,291.06088 c -4.22524,-0.64848 -12.97578,-2.6011 -16.00916,-3.57232 -41.23763,-13.20338 -64.05376,-53.74341 -51.81316,-92.06238 12.56759,-39.34261 57.04348,-61.48741 99.99246,-49.78682 29.17187,7.9473 50.35432,29.34632 56.87275,57.45424 l 1.28177,5.52708 0.0261,8.57577 0.0261,8.57576 -1.0855,5.08975 c -6.35517,29.7983 -29.61991,52.11803 -61.44593,58.94999 l -5.59488,1.20103 -10.42999,0.13067 c -5.73649,0.0719 -11.05578,0.0346 -11.82065,-0.0828 z m 21.24861,-2.70864 c 61.24988,-8.02916 88.06451,-76.21315 46.72319,-118.80725 -42.81137,-44.1087 -119.93504,-26.17984 -134.45792,31.25729 -12.2415,48.41443 34.03138,94.58985 87.73473,87.54996 z m -19.16261,-6.56009 c -18.78828,-2.84899 -31.2794,-8.7641 -42.91666,-20.32298 -9.39615,-9.33286 -14.30528,-17.74773 -17.71519,-30.36608 l -1.19005,-4.40377 -0.0313,-9.73465 -0.0313,-9.73465 1.32492,-5.08542 c 3.15312,-12.1026 8.1158,-20.6281 17.4254,-29.93547 30.86601,-30.85863 86.04137,-25.51571 110.12733,10.66422 29.04933,43.63552 -4.31389,99.66638 -59.04281,99.15766 -3.73526,-0.0347 -7.31287,-0.14221 -7.95026,-0.23886 z m 16.68798,-2.47957 c 40.74114,-4.71677 67.37662,-42.3697 56.08589,-79.28514 -6.58295,-21.52322 -26.17197,-38.91437 -49.48023,-43.92859 l -4.28789,-0.92244 0,16.94338 0,16.94337 -12.35789,-0.2693 c -17.65869,-0.3848 -21.39439,0.35366 -26.8051,5.29874 -7.0837,6.47411 -5.50623,16.49016 3.32436,21.10785 4.06186,2.12402 5.78843,2.36149 19.61421,2.69767 14.49989,0.35257 17.6967,0.81988 22.62815,3.30777 10.57698,5.33601 12.75908,18.29254 4.44213,26.37569 -4.5574,4.42929 -9.6326,5.78465 -21.62351,5.7747 l -8.2281,-0.007 0,12.94305 0,12.94304 0.57944,0.23382 c 1.03726,0.41854 12.06635,0.3112 16.10854,-0.15678 z m -10.96586,-11.93631 c 0.16462,-2.48582 0.30038,-5.51051 0.3017,-6.72155 l 0.002,-2.20189 6.37388,-0.007 c 3.87489,-0.004 7.46434,-0.2654 9.15521,-0.6663 18.68064,-4.42914 25.01316,-25.39848 11.42904,-37.84586 -6.46916,-5.9278 -9.72221,-6.74141 -28.58057,-7.1482 l -14.3702,-0.30997 -2.20526,-0.94302 c -7.36655,-3.15005 -7.85054,-12.78618 -0.82112,-16.34826 l 2.30024,-1.16562 17.6305,0 17.63049,0 0,-14.60198 0,-14.60198 0.91653,0 c 2.81445,0 13.55279,5.24986 19.02726,9.30222 33.71782,24.95891 28.94519,73.24546 -9.05025,91.56488 -8.27376,3.98918 -17.60213,6.20536 -26.14487,6.21135 l -3.89425,0.003 0.29929,-4.51966 z m 14.81973,0.52332 c 18.59261,-3.52204 35.1341,-17.52449 41.00451,-34.7105 7.31356,-21.41092 -0.82714,-44.46539 -20.28997,-57.46126 -3.94017,-2.63096 -12.39463,-7.20461 -13.31794,-7.20467 -0.19631,-2e-5 -0.28225,6.38146 -0.19097,14.18106 0.0913,7.79959 -0.013,14.34476 -0.23177,14.54482 -0.21876,0.20006 -8.76213,0.14423 -18.98526,-0.12406 l -18.5875,-0.4878 -1.75191,1.08274 c -1.12156,0.69316 -2.07125,1.80466 -2.63944,3.08916 l -0.88754,2.00641 0.48934,1.81725 c 0.5928,2.20152 3.09693,4.54206 5.21793,4.87707 0.83405,0.13173 7.46155,0.35753 14.72777,0.50176 7.26623,0.14423 13.94142,0.37981 14.83376,0.52351 11.33376,1.82521 20.00418,9.41838 22.7456,19.9196 l 0.95587,3.66152 -0.29119,3.14178 c -0.97327,10.50112 -7.74798,18.86353 -18.15921,22.41497 l -3.62863,1.23779 -6.37388,0.22113 -6.37388,0.22114 0,3.94454 0,3.94454 4.05611,-0.32818 c 2.23086,-0.1805 5.68605,-0.63694 7.6782,-1.01432 z m -23.32318,-3.18876 0,-14.13843 0.57944,-0.0192 c 0.3187,-0.0106 4.25176,-0.002 8.74014,0.0179 12.61397,0.0575 17.68476,-1.35619 21.97331,-6.12609 4.82738,-5.3692 4.60023,-13.38527 -0.50963,-17.98545 -4.99068,-4.49287 -6.88729,-4.91455 -24.75705,-5.50433 l -14.13842,-0.46663 -3.04654,-0.9439 c -17.71745,-5.48937 -18.14578,-26.43393 -0.6619,-32.36579 l 3.70844,-1.25818 13.44309,-0.0436 13.4431,-0.0436 0,-15.49265 0,-15.49262 -3.94022,-0.40588 c -5.09886,-0.52524 -15.14519,0.32214 -21.18577,1.78697 -54.26556,13.15922 -68.87277,77.21281 -25.06606,109.91634 4.7194,3.52322 13.6361,8.18009 18.90209,9.87186 4.56931,1.46796 9.81562,2.77758 11.2412,2.80613 l 1.27478,0.0255 0,-14.13843 z m -11.58887,3.04213 c -14.95663,-5.7414 -26.10262,-15.70458 -32.45232,-29.00849 -16.68585,-34.96029 9.51843,-74.57442 50.64685,-76.56499 l 5.91032,-0.28605 0,9.36185 0,9.36186 -11.00943,-0.0649 -11.00942,-0.0649 -2.74357,0.75393 c -21.21365,5.8295 -23.95666,32.51432 -4.31144,41.94312 5.25186,2.52064 7.33114,2.78842 22.01184,2.83467 14.061,0.0443 16.30085,0.31784 19.07839,2.32988 6.01097,4.35433 4.51531,13.49881 -2.60465,15.92483 l -2.13996,0.72916 -13.13875,-0.30299 -13.13875,-0.30299 0,12.33147 c 0,6.78231 -0.15645,12.41777 -0.34767,12.52325 -0.19122,0.10547 -2.32936,-0.56894 -4.75144,-1.4987 z m 2.3055,-7.56179 c -0.0611,-2.86825 -0.0834,-8.21825 -0.0495,-11.8889 l 0.0617,-6.6739 14.48609,0.32205 14.48609,0.32205 2.0517,-1.06503 c 4.76929,-2.47572 4.76697,-8.81587 -0.004,-11.28311 l -1.35601,-0.70121 -14.25242,-0.24264 c -16.3458,-0.27827 -19.01878,-0.66097 -24.7891,-3.5491 -19.05099,-9.53534 -18.912,-35.50718 0.23992,-44.8252 5.03255,-2.44851 7.39428,-2.8119 18.27465,-2.8119 l 9.86903,0 0,-2.24656 c 0,-1.23561 0.13763,-4.18552 0.30585,-6.55536 l 0.30585,-4.30879 -4.36195,0.32697 c -28.08467,2.10519 -49.22632,21.34548 -51.90982,47.24134 -2.18502,21.08553 11.37658,43.20321 31.59696,51.5316 2.14416,0.88314 4.18148,1.60953 4.52737,1.6142 l 0.62889,0.009 -0.11117,-5.215 z"
       id="path3026"
       inkscape:connector-curvature="0" />
  </g>
</svg>
