<?xml version="1.0" encoding="UTF-8" standalone="no"?>
<!-- Created with Inkscape (http://www.inkscape.org/) -->

<svg
   xmlns:dc="http://purl.org/dc/elements/1.1/"
   xmlns:cc="http://creativecommons.org/ns#"
   xmlns:rdf="http://www.w3.org/1999/02/22-rdf-syntax-ns#"
   xmlns:svg="http://www.w3.org/2000/svg"
   xmlns="http://www.w3.org/2000/svg"
   xmlns:xlink="http://www.w3.org/1999/xlink"
   xmlns:sodipodi="http://sodipodi.sourceforge.net/DTD/sodipodi-0.dtd"
   xmlns:inkscape="http://www.inkscape.org/namespaces/inkscape"
   width="330.4794"
   height="278.06467"
   id="svg2"
   version="1.1"
   inkscape:version="0.48.2 r9819"
   sodipodi:docname="sally_ann3.svg">
  <sodipodi:namedview
     id="base"
     pagecolor="#ffffff"
     bordercolor="#666666"
     borderopacity="1.0"
     inkscape:pageopacity="0.0"
     inkscape:pageshadow="2"
     inkscape:zoom="0.7"
     inkscape:cx="-126.54123"
     inkscape:cy="396.2497"
     inkscape:document-units="px"
     inkscape:current-layer="layer1"
     showgrid="false"
     inkscape:window-width="1280"
     inkscape:window-height="972"
     inkscape:window-x="0"
     inkscape:window-y="24"
     inkscape:window-maximized="1"
     width="0px"
     height="0px"
     fit-margin-top="0"
     fit-margin-left="0"
     fit-margin-right="0"
     fit-margin-bottom="0" />
  <defs
     id="defs4">
    <inkscape:perspective
       sodipodi:type="inkscape:persp3d"
       inkscape:vp_x="-277.42805 : -303.67051 : 0"
       inkscape:vp_y="-955.41377 : 295.27028 : 0"
       inkscape:vp_z="-57.719064 : 407.2476 : 0"
       inkscape:persp3d-origin="748.05978 : 788.01423 : 1"
       id="perspective4811" />
    <inkscape:perspective
       sodipodi:type="inkscape:persp3d"
       inkscape:vp_x="-372.04724 : 175.3937 : 0"
       inkscape:vp_y="0 : 1000 : 0"
       inkscape:vp_z="372.04724 : 175.3937 : 0"
       inkscape:persp3d-origin="954.99305 : 73.869632 : 1"
       id="perspective4809" />
    <inkscape:perspective
       sodipodi:type="inkscape:persp3d"
       inkscape:vp_x="-372.04724 : 175.3937 : 0"
       inkscape:vp_y="0 : 1000 : 0"
       inkscape:vp_z="372.04724 : 175.3937 : 0"
       inkscape:persp3d-origin="926.06435 : 89.583922 : 1"
       id="perspective4807" />
    <inkscape:perspective
       sodipodi:type="inkscape:persp3d"
       inkscape:vp_x="-372.04724 : 175.3937 : 0"
       inkscape:vp_y="0 : 1000 : 0"
       inkscape:vp_z="372.04724 : 175.3937 : 0"
       inkscape:persp3d-origin="1277.1545 : 223.98241 : 1"
       id="perspective4805" />
    <inkscape:perspective
       sodipodi:type="inkscape:persp3d"
       inkscape:vp_x="-372.04724 : 175.3937 : 0"
       inkscape:vp_y="0 : 1000 : 0"
       inkscape:vp_z="372.04724 : 175.3937 : 0"
       inkscape:persp3d-origin="1280.5526 : 296.52521 : 1"
       id="perspective4803" />
    <inkscape:perspective
       sodipodi:type="inkscape:persp3d"
       inkscape:vp_x="-372.04724 : 175.3937 : 0"
       inkscape:vp_y="0 : 1000 : 0"
       inkscape:vp_z="372.04724 : 175.3937 : 0"
       inkscape:persp3d-origin="1348.6312 : 333.60245 : 1"
       id="perspective4801" />
    <inkscape:perspective
       sodipodi:type="inkscape:persp3d"
       inkscape:vp_x="-372.04724 : 175.3937 : 0"
       inkscape:vp_y="0 : 1000 : 0"
       inkscape:vp_z="372.04724 : 175.3937 : 0"
       inkscape:persp3d-origin="1149.5153 : 354.23008 : 1"
       id="perspective4799" />
    <inkscape:perspective
       sodipodi:type="inkscape:persp3d"
       inkscape:vp_x="-372.04724 : 175.3937 : 0"
       inkscape:vp_y="0 : 1000 : 0"
       inkscape:vp_z="372.04724 : 175.3937 : 0"
       inkscape:persp3d-origin="1223.6576 : 379.97476 : 1"
       id="perspective4797" />
    <inkscape:perspective
       sodipodi:type="inkscape:persp3d"
       inkscape:vp_x="-372.04724 : 175.3937 : 0"
       inkscape:vp_y="0 : 1000 : 0"
       inkscape:vp_z="372.04724 : 175.3937 : 0"
       inkscape:persp3d-origin="1194.729 : 395.68905 : 1"
       id="perspective4795" />
    <inkscape:perspective
       sodipodi:type="inkscape:persp3d"
       inkscape:vp_x="-372.04724 : 175.3937 : 0"
       inkscape:vp_y="0 : 1000 : 0"
       inkscape:vp_z="372.04724 : 175.3937 : 0"
       inkscape:persp3d-origin="574.20689 : 311.98063 : 1"
       id="perspective4540" />
    <inkscape:perspective
       sodipodi:type="inkscape:persp3d"
       inkscape:vp_x="30.614739 : -410.1766 : 0"
       inkscape:vp_y="-870.27788 : -492.56109 : 0"
       inkscape:vp_z="-335.89725 : 237.39237 : 0"
       inkscape:persp3d-origin="-57.579906 : 631.97386 : 1"
       id="perspective4538" />
    <inkscape:perspective
       sodipodi:type="inkscape:persp3d"
       inkscape:vp_x="-372.04724 : 175.3937 : 0"
       inkscape:vp_y="0 : 1000 : 0"
       inkscape:vp_z="372.04724 : 175.3937 : 0"
       inkscape:persp3d-origin="825.63757 : 173.24925 : 1"
       id="perspective4536" />
    <inkscape:perspective
       sodipodi:type="inkscape:persp3d"
       inkscape:vp_x="-372.04724 : 175.3937 : 0"
       inkscape:vp_y="0 : 1000 : 0"
       inkscape:vp_z="372.04724 : 175.3937 : 0"
       inkscape:persp3d-origin="829.03577 : 245.79205 : 1"
       id="perspective4534" />
    <inkscape:perspective
       sodipodi:type="inkscape:persp3d"
       inkscape:vp_x="-372.04724 : 175.3937 : 0"
       inkscape:vp_y="0 : 1000 : 0"
       inkscape:vp_z="372.04724 : 175.3937 : 0"
       inkscape:persp3d-origin="897.11437 : 282.86929 : 1"
       id="perspective4532" />
    <inkscape:perspective
       sodipodi:type="inkscape:persp3d"
       inkscape:vp_x="-372.04724 : 175.3937 : 0"
       inkscape:vp_y="0 : 1000 : 0"
       inkscape:vp_z="372.04724 : 175.3937 : 0"
       inkscape:persp3d-origin="697.99837 : 303.49692 : 1"
       id="perspective4530" />
    <inkscape:perspective
       sodipodi:type="inkscape:persp3d"
       inkscape:vp_x="-372.04724 : 175.3937 : 0"
       inkscape:vp_y="0 : 1000 : 0"
       inkscape:vp_z="372.04724 : 175.3937 : 0"
       inkscape:persp3d-origin="698.45562 : 158.43745 : 1"
       id="perspective4528" />
    <inkscape:perspective
       sodipodi:type="inkscape:persp3d"
       inkscape:vp_x="-372.04724 : 175.3937 : 0"
       inkscape:vp_y="0 : 1000 : 0"
       inkscape:vp_z="372.04724 : 175.3937 : 0"
       inkscape:persp3d-origin="669.52702 : 174.15174 : 1"
       id="perspective4526" />
    <inkscape:perspective
       sodipodi:type="inkscape:persp3d"
       inkscape:vp_x="-277.42805 : -303.67051 : 0"
       inkscape:vp_y="-955.41377 : 295.27028 : 0"
       inkscape:vp_z="-57.719064 : 407.2476 : 0"
       inkscape:persp3d-origin="674.31865 : 1174.9027 : 1"
       id="perspective4234" />
    <inkscape:perspective
       sodipodi:type="inkscape:persp3d"
       inkscape:vp_x="-372.04724 : 175.3937 : 0"
       inkscape:vp_y="0 : 1000 : 0"
       inkscape:vp_z="372.04724 : 175.3937 : 0"
       inkscape:persp3d-origin="950.4926 : 407.26634 : 1"
       id="perspective4232" />
    <inkscape:perspective
       sodipodi:type="inkscape:persp3d"
       inkscape:vp_x="-372.04724 : 175.3937 : 0"
       inkscape:vp_y="0 : 1000 : 0"
       inkscape:vp_z="372.04724 : 175.3937 : 0"
       inkscape:persp3d-origin="921.56398 : 422.98063 : 1"
       id="perspective4230" />
    <inkscape:perspective
       sodipodi:type="inkscape:persp3d"
       inkscape:vp_x="-372.04724 : 175.3937 : 0"
       inkscape:vp_y="0 : 1000 : 0"
       inkscape:vp_z="372.04724 : 175.3937 : 0"
       inkscape:persp3d-origin="1269.6035 : 519.05279 : 1"
       id="perspective4228" />
    <inkscape:perspective
       sodipodi:type="inkscape:persp3d"
       inkscape:vp_x="-372.04724 : 175.3937 : 0"
       inkscape:vp_y="0 : 1000 : 0"
       inkscape:vp_z="372.04724 : 175.3937 : 0"
       inkscape:persp3d-origin="1273.0017 : 591.59559 : 1"
       id="perspective4226" />
    <inkscape:perspective
       sodipodi:type="inkscape:persp3d"
       inkscape:vp_x="-372.04724 : 175.3937 : 0"
       inkscape:vp_y="0 : 1000 : 0"
       inkscape:vp_z="372.04724 : 175.3937 : 0"
       inkscape:persp3d-origin="1341.0803 : 628.67283 : 1"
       id="perspective4224" />
    <inkscape:perspective
       sodipodi:type="inkscape:persp3d"
       inkscape:vp_x="-372.04724 : 175.3937 : 0"
       inkscape:vp_y="0 : 1000 : 0"
       inkscape:vp_z="372.04724 : 175.3937 : 0"
       inkscape:persp3d-origin="1131.9643 : 649.30046 : 1"
       id="perspective4222" />
    <inkscape:perspective
       sodipodi:type="inkscape:persp3d"
       inkscape:vp_x="-372.04724 : 175.3937 : 0"
       inkscape:vp_y="0 : 1000 : 0"
       inkscape:vp_z="372.04724 : 175.3937 : 0"
       inkscape:persp3d-origin="1143.4317 : 509.29175 : 1"
       id="perspective4220" />
    <inkscape:perspective
       sodipodi:type="inkscape:persp3d"
       inkscape:vp_x="-372.04724 : 175.3937 : 0"
       inkscape:vp_y="0 : 1000 : 0"
       inkscape:vp_z="372.04724 : 175.3937 : 0"
       inkscape:persp3d-origin="1114.5031 : 525.00604 : 1"
       id="perspective4218" />
    <inkscape:perspective
       sodipodi:type="inkscape:persp3d"
       inkscape:vp_x="-277.42805 : -303.67051 : 0"
       inkscape:vp_y="-955.41377 : 295.27028 : 0"
       inkscape:vp_z="-57.719064 : 407.2476 : 0"
       inkscape:persp3d-origin="226.70434 : 919.8925 : 1"
       id="perspective1802" />
    <inkscape:perspective
       sodipodi:type="inkscape:persp3d"
       inkscape:vp_x="-372.04724 : 175.3937 : 0"
       inkscape:vp_y="0 : 1000 : 0"
       inkscape:vp_z="372.04724 : 175.3937 : 0"
       inkscape:persp3d-origin="509.36301 : 409.82762 : 1"
       id="perspective1236" />
    <inkscape:perspective
       sodipodi:type="inkscape:persp3d"
       inkscape:vp_x="-372.04724 : 175.3937 : 0"
       inkscape:vp_y="0 : 1000 : 0"
       inkscape:vp_z="372.04724 : 175.3937 : 0"
       inkscape:persp3d-origin="480.43444 : 425.54191 : 1"
       id="perspective1234" />
    <linearGradient
       id="linearGradient952"
       inkscape:collect="always">
      <stop
         id="stop954"
         offset="0"
         style="stop-color:#e6ffd7;stop-opacity:1" />
      <stop
         id="stop956"
         offset="1"
         style="stop-color:#6c9f4d;stop-opacity:1" />
    </linearGradient>
    <inkscape:perspective
       id="perspective924"
       inkscape:persp3d-origin="673.37358 : 527.56732 : 1"
       inkscape:vp_z="372.04724 : 175.3937 : 0"
       inkscape:vp_y="0 : 1000 : 0"
       inkscape:vp_x="-372.04724 : 175.3937 : 0"
       sodipodi:type="inkscape:persp3d" />
    <inkscape:perspective
       id="perspective908"
       inkscape:persp3d-origin="702.30215 : 511.85303 : 1"
       inkscape:vp_z="372.04724 : 175.3937 : 0"
       inkscape:vp_y="0 : 1000 : 0"
       inkscape:vp_x="-372.04724 : 175.3937 : 0"
       sodipodi:type="inkscape:persp3d" />
    <inkscape:perspective
       id="perspective4029"
       inkscape:persp3d-origin="700.83483 : 651.86174 : 1"
       inkscape:vp_z="372.04724 : 175.3937 : 0"
       inkscape:vp_y="0 : 1000 : 0"
       inkscape:vp_x="-372.04724 : 175.3937 : 0"
       sodipodi:type="inkscape:persp3d" />
    <inkscape:perspective
       sodipodi:type="inkscape:persp3d"
       inkscape:vp_x="-165.36634 : 90.729587 : 0"
       inkscape:vp_y="0 : 517.29103 : 0"
       inkscape:vp_z="165.36634 : 90.729587 : 0"
       inkscape:persp3d-origin="665.74241 : 854.36226 : 1"
       id="perspective3968" />
    <inkscape:perspective
       id="perspective3966"
       inkscape:persp3d-origin="678.65964 : 862.02112 : 1"
       inkscape:vp_z="165.36634 : 90.729587 : 0"
       inkscape:vp_y="0 : 517.29103 : 0"
       inkscape:vp_x="-165.36634 : 90.729587 : 0"
       sodipodi:type="inkscape:persp3d" />
    <inkscape:perspective
       id="perspective3964"
       inkscape:persp3d-origin="662.1505 : 860.54312 : 1"
       inkscape:vp_z="165.36634 : 90.729587 : 0"
       inkscape:vp_y="0 : 517.29103 : 0"
       inkscape:vp_x="-165.36634 : 90.729587 : 0"
       sodipodi:type="inkscape:persp3d" />
    <inkscape:path-effect
       bendpath3-nodetypes="cc"
       bendpath1-nodetypes="cc"
       bendpath4="m 147.74402,307.38976 0,203.03125"
       bendpath3="m 147.74402,510.42101 59.4133,-25"
       bendpath2="m 202.87161,307.38976 0,203.03125"
       bendpath1="m 147.74402,307.38976 52.27045,-21.42857"
       xx="true"
       yy="true"
       is_visible="true"
       id="path-effect3781"
       effect="envelope" />
    <inkscape:perspective
       sodipodi:type="inkscape:persp3d"
       inkscape:vp_x="-372.04724 : 175.3937 : 0"
       inkscape:vp_y="0 : 1000 : 0"
       inkscape:vp_z="372.04724 : 175.3937 : 0"
       inkscape:persp3d-origin="899.9508 : 631.23411 : 1"
       id="perspective3737" />
    <inkscape:perspective
       id="perspective3735"
       inkscape:persp3d-origin="831.87217 : 594.15687 : 1"
       inkscape:vp_z="372.04724 : 175.3937 : 0"
       inkscape:vp_y="0 : 1000 : 0"
       inkscape:vp_x="-372.04724 : 175.3937 : 0"
       sodipodi:type="inkscape:persp3d" />
    <inkscape:perspective
       sodipodi:type="inkscape:persp3d"
       inkscape:vp_x="-372.04724 : 175.3937 : 0"
       inkscape:vp_y="0 : 1000 : 0"
       inkscape:vp_z="372.04724 : 175.3937 : 0"
       inkscape:persp3d-origin="828.47402 : 521.61407 : 1"
       id="perspective3733" />
    <inkscape:perspective
       sodipodi:type="inkscape:persp3d"
       inkscape:vp_x="-165.36634 : 90.729587 : 0"
       inkscape:vp_y="0 : 517.29103 : 0"
       inkscape:vp_z="165.36634 : 90.729587 : 0"
       inkscape:persp3d-origin="659.61064 : 794.77328 : 1"
       id="perspective2876" />
    <inkscape:perspective
       id="perspective2860"
       inkscape:persp3d-origin="410.50504 : 695.4896 : 1"
       inkscape:vp_z="-2.7597474 : -1.9450957 : 0"
       inkscape:vp_y="0.41286442 : -9.9456732 : 0"
       inkscape:vp_x="2.904575 : -1.5437212 : 0"
       sodipodi:type="inkscape:persp3d" />
    <inkscape:perspective
       sodipodi:type="inkscape:persp3d"
       inkscape:vp_x="2.904575 : -1.5437212 : 0"
       inkscape:vp_y="0.41286442 : -9.9456732 : 0"
       inkscape:vp_z="-2.7597474 : -1.9450957 : 0"
       inkscape:persp3d-origin="411.32147 : 696.05332 : 1"
       id="perspective2844" />
    <inkscape:perspective
       id="perspective10"
       inkscape:persp3d-origin="411.61957 : 696.74264 : 1"
       inkscape:vp_z="-2.7597474 : -1.9450957 : 0"
       inkscape:vp_y="0.41286442 : -9.9456732 : 0"
       inkscape:vp_x="2.904575 : -1.5437212 : 0"
       sodipodi:type="inkscape:persp3d" />
    <linearGradient
       inkscape:collect="always"
       xlink:href="#linearGradient952"
       id="linearGradient1238"
       gradientUnits="userSpaceOnUse"
       x1="533.21429"
       y1="211.64789"
       x2="512.14282"
       y2="168.79076" />
    <linearGradient
       inkscape:collect="always"
       xlink:href="#linearGradient952-869"
       id="linearGradient1238-869"
       gradientUnits="userSpaceOnUse"
       x1="533.21429"
       y1="211.64789"
       x2="512.14282"
       y2="168.79076" />
    <linearGradient
       id="linearGradient952-869"
       inkscape:collect="always">
      <stop
         id="stop1266"
         offset="0"
         style="stop-color:#d7e6ff;stop-opacity:1" />
      <stop
         id="stop1268"
         offset="1"
         style="stop-color:#4d6c9f;stop-opacity:1" />
    </linearGradient>
    <linearGradient
       inkscape:collect="always"
       xlink:href="#linearGradient952-5-5"
       id="linearGradient10164-2-3"
       gradientUnits="userSpaceOnUse"
       gradientTransform="translate(-186.06601,304.53345)"
       x1="533.21429"
       y1="211.64789"
       x2="512.14282"
       y2="168.79076" />
    <linearGradient
       id="linearGradient952-5-5"
       inkscape:collect="always">
      <stop
         id="stop954-8-7"
         offset="0"
         style="stop-color:#e6ffd7;stop-opacity:1" />
      <stop
         id="stop956-9-1"
         offset="1"
         style="stop-color:#6c9f4d;stop-opacity:1" />
    </linearGradient>
    <linearGradient
       inkscape:collect="always"
       xlink:href="#linearGradient952-869-197-3-7-9"
       id="linearGradient10268-2-5-7"
       gradientUnits="userSpaceOnUse"
       gradientTransform="translate(-379.00515,61.651598)"
       x1="533.21429"
       y1="211.64789"
       x2="512.14282"
       y2="168.79076" />
    <linearGradient
       id="linearGradient952-869-197-3-7-9"
       inkscape:collect="always">
      <stop
         id="stop1536-8-8-2"
         offset="0"
         style="stop-color:#ffd7e6;stop-opacity:1" />
      <stop
         id="stop1538-9-6-3"
         offset="1"
         style="stop-color:#9f4d6c;stop-opacity:1" />
    </linearGradient>
  </defs>
  <metadata
     id="metadata7">
    <rdf:RDF>
      <cc:Work
         rdf:about="">
        <dc:format>image/svg+xml</dc:format>
        <dc:type
           rdf:resource="http://purl.org/dc/dcmitype/StillImage" />
        <dc:title></dc:title>
      </cc:Work>
    </rdf:RDF>
  </metadata>
  <g
     id="layer1"
     inkscape:groupmode="layer"
     inkscape:label="Layer 1"
     transform="translate(-485.82512,-489.29277)">
    <g
       id="g1172"
       transform="matrix(0.44447673,0,0,0.51729103,-44.115319,301.51472)" />
    <g
       id="g11246"
       transform="translate(11.428571,-90)">
      <g
         transform="translate(530.37445,1.3475996)"
         id="g10284-2-9-6">
        <g
           transform="translate(-101.42857,17.857141)"
           id="g10047-4-7-8">
          <path
             inkscape:connector-curvature="0"
             id="path10049-5-3-5"
             style="color:#000000;fill:#d7d7ff;fill-opacity:1;fill-rule:evenodd;stroke:none;stroke-width:4.04300022;marker:none;visibility:visible"
             d="m 151.40176,653.44468 0,71.47959 7.53585,-3.55261 0,-71.47959 z" />
          <path
             inkscape:connector-curvature="0"
             id="path10051-6-4-8"
             style="color:#000000;fill:#8686bf;fill-opacity:1;fill-rule:evenodd;stroke:none;stroke-width:4.04300022;marker:none;visibility:visible"
             d="m 142.11606,649.06714 9.2857,4.37754 0,71.47959 -9.2857,-4.37754 z" />
          <path
             inkscape:connector-curvature="0"
             id="path10053-1-4-2"
             style="color:#000000;fill:#d7d7ff;fill-opacity:1;fill-rule:evenodd;stroke:none;stroke-width:4.04300022;marker:none;visibility:visible"
             d="m 350.51776,674.07231 0,71.47959 7.53585,-3.55261 0,-71.47959 z" />
          <path
             inkscape:connector-curvature="0"
             id="path10055-5-0-1"
             style="color:#000000;fill:#8686bf;fill-opacity:1;fill-rule:evenodd;stroke:none;stroke-width:4.04300022;marker:none;visibility:visible"
             d="m 341.23206,669.69477 9.2857,4.37754 0,71.47959 -9.2857,-4.37754 z" />
          <path
             inkscape:connector-curvature="0"
             id="path10057-6-7-3"
             style="color:#000000;fill:#d7d7ff;fill-opacity:1;fill-rule:evenodd;stroke:none;stroke-width:4.04300022;marker:none;visibility:visible"
             d="m 282.43916,711.14955 0,71.47959 7.53585,-3.55261 0,-71.47959 z" />
          <path
             inkscape:connector-curvature="0"
             id="path10059-4-9-0"
             style="color:#000000;fill:#8686bf;fill-opacity:1;fill-rule:evenodd;stroke:none;stroke-width:4.04300022;marker:none;visibility:visible"
             d="m 273.15346,706.77201 9.2857,4.37754 0,71.47959 -9.2857,-4.37754 z" />
          <path
             inkscape:connector-curvature="0"
             id="path10061-1-8-0"
             style="color:#000000;fill:#4d4d9f;fill-opacity:1;fill-rule:evenodd;stroke:none;stroke-width:4.04300022;marker:none;visibility:visible"
             d="m 126.58869,638.15306 159.49665,75.19127 89.84474,-42.35537 -159.49665,-75.19128 z" />
          <path
             inkscape:connector-curvature="0"
             id="path10063-4-8-5"
             style="color:#000000;fill:#d7d7ff;fill-opacity:1;fill-rule:evenodd;stroke:none;stroke-width:4.04300022;marker:none;visibility:visible"
             d="m 286.08534,713.34433 0,7.38092 89.84474,-42.35537 0,-7.38092 z" />
          <path
             inkscape:connector-curvature="0"
             id="path10065-5-7-5"
             style="color:#000000;fill:#8686bf;fill-opacity:1;fill-rule:evenodd;stroke:none;stroke-width:4.04300022;marker:none;visibility:visible"
             d="m 126.58869,638.15306 159.49665,75.19127 0,7.38092 -159.49665,-75.19127 z" />
        </g>
        <g
           transform="translate(-111.60715,14.464288)"
           id="g10067-6-6-2">
          <path
             d="m 292.1741,633.016 40.40608,19.04858 0,29.6552 -40.40608,-19.04858 z"
             style="color:#000000;fill:#5ca996;fill-opacity:1;fill-rule:evenodd;stroke:none;stroke-width:4.04300022;marker:none;visibility:visible"
             id="path10069-5-5-1"
             inkscape:connector-curvature="0" />
          <path
             d="m 265.7347,645.48029 0,29.6552 26.4394,-12.46429 0,-29.6552 z"
             style="color:#000000;fill:#356458;fill-opacity:1;fill-rule:evenodd;stroke:none;stroke-width:4.04300022;marker:none;visibility:visible"
             id="path10071-2-6-5"
             inkscape:connector-curvature="0" />
          <path
             style="fill:#ce5c00;fill-opacity:1;stroke:#ce5c00;stroke-width:2.41653538;stroke-miterlimit:4;stroke-opacity:1;stroke-dashoffset:0"
             d="m 312.44299,664.25049 c 0,6.41576 -5.201,11.61676 -11.61675,11.61676 -6.41576,0 -11.61676,-5.201 -11.61676,-11.61676 0,-6.41575 5.201,-11.61675 11.61676,-11.61675 6.41575,0 11.61675,5.201 11.61675,11.61675 z"
             id="path4452-8"
             inkscape:connector-curvature="0" />
          <path
             d="m 306.14078,664.52887 0,29.6552 26.4394,-12.46429 0,-29.6552 z"
             style="color:#000000;fill:#d7fff5;fill-opacity:1;fill-rule:evenodd;stroke:none;stroke-width:4.04300022;marker:none;visibility:visible"
             id="path10073-6-9-9"
             inkscape:connector-curvature="0" />
          <path
             d="m 265.7347,645.48029 40.40608,19.04858 0,29.6552 -40.40608,-19.04858 z"
             style="color:#000000;fill:#86bfb1;fill-opacity:1;fill-rule:evenodd;stroke:none;stroke-width:4.04300022;marker:none;visibility:visible"
             id="path10075-2-0-5"
             inkscape:connector-curvature="0" />
        </g>
        <g
           transform="translate(-98.035719,27.857141)"
           id="g10077-2-6-9">
          <path
             inkscape:connector-curvature="0"
             id="path10079-8-5-8"
             style="color:#000000;fill:#a9965c;fill-opacity:1;fill-rule:evenodd;stroke:none;stroke-width:4.04300022;marker:none;visibility:visible"
             d="m 200.75529,583.51852 40.40609,19.04858 0,29.6552 -40.40609,-19.04858 z" />
          <path
             inkscape:connector-curvature="0"
             id="path10081-9-5-9"
             style="color:#000000;fill:#645835;fill-opacity:1;fill-rule:evenodd;stroke:none;stroke-width:4.04300022;marker:none;visibility:visible"
             d="m 174.31589,595.98281 0,29.6552 26.4394,-12.46429 0,-29.6552 z" />
          <path
             inkscape:connector-curvature="0"
             id="path10083-0-1-5"
             style="color:#000000;fill:#fff5d7;fill-opacity:1;fill-rule:evenodd;stroke:none;stroke-width:4.04300022;marker:none;visibility:visible"
             d="m 214.72197,615.03139 0,29.6552 26.43941,-12.46429 0,-29.6552 z" />
          <path
             inkscape:connector-curvature="0"
             id="path10085-7-3-4"
             style="color:#000000;fill:#bfb186;fill-opacity:1;fill-rule:evenodd;stroke:none;stroke-width:4.04300022;marker:none;visibility:visible"
             d="m 174.31589,595.98281 40.40608,19.04858 0,29.6552 -40.40608,-19.04858 z" />
        </g>
      </g>
      <g
         transform="translate(-55.000004,94.285715)"
         id="g10280">
        <path
           inkscape:connector-curvature="0"
           id="path4293-6"
           d="M 668.52816,626.49752 623.57637,648.2158"
           style="color:#000000;fill:none;stroke:#000000;stroke-width:3.0999999;stroke-linecap:round;stroke-linejoin:miter;stroke-miterlimit:4;stroke-opacity:1;stroke-dasharray:none;stroke-dashoffset:0;marker:none;visibility:visible;display:inline;overflow:visible;enable-background:accumulate" />
        <path
           inkscape:transform-center-y="-5.5595308"
           style="fill:#000000;stroke:#000000;stroke-width:2.73645067px;stroke-linecap:round;stroke-linejoin:round;stroke-opacity:1"
           d="m 670.09398,630.46311 4.40684,-7.21173 -8.77379,-0.0242 4.36695,7.23594 z"
           id="path4548-6"
           inkscape:connector-curvature="0"
           sodipodi:nodetypes="cccc"
           inkscape:transform-center-x="0.025083299" />
      </g>
      <g
         transform="translate(388.94588,417.06189)"
         id="g10245-1-4-6">
        <path
           inkscape:connector-curvature="0"
           id="path9854-9-7-7"
           style="fill:#ffd7e6;fill-opacity:1;fill-rule:evenodd;stroke:none"
           d="m 118.44548,364.86186 0,59.71939 9.25826,-4.36461 0,-59.71939 z" />
        <path
           inkscape:connector-curvature="0"
           id="path9856-6-5-1"
           style="fill:#bf869b;fill-opacity:1;fill-rule:evenodd;stroke:none"
           d="m 109.51694,360.65269 8.92854,4.20917 0,59.71939 -8.92854,-4.20917 z" />
        <path
           inkscape:connector-curvature="0"
           id="path9840-1-2-7"
           style="fill:#ffd7e6;fill-opacity:1;fill-rule:evenodd;stroke:none"
           d="m 147.37405,380.57615 0,59.71939 9.25826,-4.36461 0,-59.71939 z" />
        <path
           inkscape:connector-curvature="0"
           id="path9842-4-1-5"
           style="fill:#bf869b;fill-opacity:1;fill-rule:evenodd;stroke:none"
           d="m 138.44551,376.36698 8.92854,4.20917 0,59.71939 -8.92854,-4.20917 z" />
        <path
           id="path1208-8-5-7"
           style="color:#000000;fill:#9f4d6c;fill-opacity:1;fill-rule:evenodd;stroke:none;stroke-width:4.04300022;marker:none;visibility:visible"
           d="m 97.236385,312.67611 44.898945,24.63417 41.34158,-22.6824 -44.89894,-24.63417 z"
           inkscape:connector-curvature="0" />
        <path
           id="path1210-9-2-0"
           style="color:#000000;fill:#ffd7e6;fill-opacity:1;fill-rule:evenodd;stroke:none;stroke-width:4.04300022;marker:none;visibility:visible"
           d="m 142.13533,337.31028 14,67.49524 41.34158,-22.6824 -14,-67.49524 z"
           inkscape:connector-curvature="0"
           sodipodi:nodetypes="ccccc" />
        <path
           id="path1212-0-6-9"
           style="color:#000000;fill:#bf869b;fill-opacity:1;fill-rule:evenodd;stroke:none;stroke-width:4.04300022;marker:none;visibility:visible"
           d="m 97.236385,312.67611 44.898945,24.63417 14.28571,67.70952 -70.970369,-39.27703 z"
           inkscape:connector-curvature="0"
           sodipodi:nodetypes="ccccc" />
        <path
           d="m 91.138404,263.40414 59.686876,32.74769 41.34159,-22.68239 -59.68688,-32.7477 z"
           style="color:#000000;fill:#9f4d6c;fill-opacity:1;fill-rule:evenodd;stroke:none;stroke-width:4.04300022;marker:none;visibility:visible"
           id="path1214-8-2-9"
           inkscape:connector-curvature="0" />
        <path
           sodipodi:nodetypes="ccccc"
           d="m 150.82528,296.15183 -5.59205,38.0595 42.80636,-22.54682 4.12728,-38.19507 -41.34159,22.68239 z"
           style="color:#000000;fill:#ffd7e6;fill-opacity:1;fill-rule:evenodd;stroke:none;stroke-width:4.04300022;marker:none;visibility:visible"
           id="path1216-2-3-9"
           inkscape:connector-curvature="0" />
        <path
           sodipodi:nodetypes="ccccc"
           d="m 91.138404,263.40414 59.686876,32.74769 -5.7147,37.82559 -50.47986,-26.83579 -3.492316,-43.73749 z"
           style="color:#000000;fill:#bf869b;fill-opacity:1;fill-rule:evenodd;stroke:none;stroke-width:4.04300022;marker:none;visibility:visible"
           id="path1218-3-7-7"
           inkscape:connector-curvature="0" />
        <path
           sodipodi:nodetypes="szsszsss"
           inkscape:connector-curvature="0"
           id="path1222-4-1-9"
           d="m 142.0886,227.8391 c -3.88598,0.15059 -5.94933,1.66354 -11.73214,3.38393 -5.78282,1.72039 -12.95536,8.14077 -12.95536,17.67857 0,12.13415 9.8346,24.12949 21.96875,26.78125 6.09401,1.33177 9.8603,0.0613 16.30804,-2.16964 6.44773,-2.23089 13.87946,-8.85326 13.87946,-18.39286 0,-12.13415 -9.8346,-24.12949 -21.96875,-26.78125 -1.89596,-0.41434 -3.74498,-0.56801 -5.5,-0.5 z"
           style="fill:url(#linearGradient10268-2-5-7);fill-opacity:1;stroke:none" />
        <path
           inkscape:connector-curvature="0"
           id="path1224-0-6-6"
           d="m 161.33237,258.51017 c 0,12.13415 -9.83667,19.82115 -21.97082,17.16938 -12.13415,-2.65176 -21.97082,-14.6381 -21.97082,-26.77225 0,-12.13415 9.83667,-19.82115 21.97082,-17.16939 12.13415,2.65177 21.97082,14.63811 21.97082,26.77226 z"
           style="fill:#bf869b;fill-opacity:1;stroke:none" />
        <g
           transform="matrix(1,0.46757443,0,1,0,0)"
           style="font-size:40px;font-style:normal;font-variant:normal;font-weight:bold;font-stretch:normal;line-height:125%;letter-spacing:0px;word-spacing:0px;fill:#000000;fill-opacity:1;stroke:none;font-family:Adelle Basic;-inkscape-font-specification:Adelle Basic Bold"
           id="text1784-9-1-8">
          <path
             inkscape:connector-curvature="0"
             d="m 105.79732,250.22628 c 2.02666,0 3.03999,-0.69333 3.04,-2.08 -1e-5,-0.42667 -0.0933,-0.78666 -0.28,-1.08 -0.17334,-0.30666 -0.41334,-0.56666 -0.72,-0.78 -0.30667,-0.22666 -0.66,-0.42 -1.06,-0.58 -0.38667,-0.16 -0.8,-0.32 -1.24,-0.48 -0.50667,-0.17333 -0.98667,-0.36666 -1.44,-0.58 -0.45333,-0.22666 -0.84667,-0.48666 -1.18,-0.78 -0.33333,-0.30666 -0.6,-0.66666 -0.8,-1.08 -0.18667,-0.41333 -0.28,-0.91333 -0.28,-1.5 0,-1.21332 0.41333,-2.15999 1.24,-2.84 0.82667,-0.67999 1.96666,-1.01999 3.42,-1.02 0.84,1e-5 1.59999,0.0933 2.28,0.28 0.69333,0.17334 1.19999,0.36668 1.52,0.58 l -0.62,1.58 c -0.28001,-0.17332 -0.70001,-0.33999 -1.26,-0.5 -0.54667,-0.17332 -1.18667,-0.25999 -1.92,-0.26 -0.37334,1e-5 -0.72,0.04 -1.04,0.12 -0.32,0.08 -0.6,0.20001 -0.84,0.36 -0.24,0.16001 -0.43333,0.36668 -0.58,0.62 -0.13333,0.24001 -0.2,0.52668 -0.2,0.86 0,0.37334 0.0733,0.68667 0.22,0.94 0.14667,0.25334 0.35333,0.48001 0.62,0.68 0.26666,0.18667 0.57333,0.36001 0.92,0.52 0.36,0.16001 0.75333,0.32001 1.18,0.48 0.6,0.24001 1.14666,0.48 1.64,0.72 0.50666,0.24 0.93999,0.52667 1.3,0.86 0.37333,0.33334 0.65999,0.73334 0.86,1.2 0.19999,0.45334 0.29999,1.00667 0.3,1.66 -1e-5,1.21333 -0.44667,2.14667 -1.34,2.8 -0.88001,0.65333 -2.12667,0.98 -3.74,0.98 -0.54667,0 -1.05334,-0.04 -1.52,-0.12 -0.45333,-0.0667 -0.86,-0.14667 -1.22,-0.24 -0.36,-0.10667 -0.67333,-0.21334 -0.94,-0.32 -0.25333,-0.12 -0.45333,-0.22 -0.6,-0.3 l 0.58,-1.6 c 0.30667,0.17333 0.77333,0.36667 1.4,0.58 0.62667,0.21333 1.39333,0.32 2.3,0.32"
             style="font-size:20px;font-weight:normal;font-family:Ubuntu;-inkscape-font-specification:Ubuntu"
             id="path9798-1-5-4" />
          <path
             inkscape:connector-curvature="0"
             d="m 116.68045,250.26628 c 0.43999,0 0.82666,-0.007 1.16,-0.02 0.34666,-0.0267 0.63332,-0.0667 0.86,-0.12 l 0,-3.1 c -0.13334,-0.0667 -0.35334,-0.12 -0.66,-0.16 -0.29334,-0.0533 -0.65334,-0.08 -1.08,-0.08 -0.28001,0 -0.58001,0.02 -0.9,0.06 -0.30667,0.04 -0.59334,0.12667 -0.86,0.26 -0.25334,0.12 -0.46667,0.29334 -0.64,0.52 -0.17334,0.21333 -0.26001,0.5 -0.26,0.86 -1e-5,0.66667 0.21333,1.13333 0.64,1.4 0.42666,0.25333 1.00666,0.38 1.74,0.38 m -0.16,-9.32 c 0.74666,1e-5 1.37332,0.10001 1.88,0.3 0.51999,0.18667 0.93332,0.46001 1.24,0.82 0.31999,0.34667 0.54665,0.76667 0.68,1.26 0.13332,0.48001 0.19999,1.01334 0.2,1.6 l 0,6.5 c -0.16001,0.0267 -0.38668,0.0667 -0.68,0.12 -0.28001,0.04 -0.60001,0.08 -0.96,0.12 -0.36001,0.04 -0.75334,0.0733 -1.18,0.1 -0.41334,0.04 -0.82668,0.06 -1.24,0.06 -0.58667,0 -1.12667,-0.06 -1.62,-0.18 -0.49334,-0.12 -0.92001,-0.30667 -1.28,-0.56 -0.36,-0.26667 -0.64,-0.61333 -0.84,-1.04 -0.2,-0.42667 -0.3,-0.94 -0.3,-1.54 0,-0.57333 0.11333,-1.06667 0.34,-1.48 0.24,-0.41333 0.55999,-0.74666 0.96,-1 0.39999,-0.25333 0.86666,-0.44 1.4,-0.56 0.53333,-0.12 1.09333,-0.18 1.68,-0.18 0.18666,0 0.37999,0.0133 0.58,0.04 0.19999,0.0133 0.38666,0.04 0.56,0.08 0.18666,0.0267 0.34666,0.0533 0.48,0.08 0.13332,0.0267 0.22666,0.0467 0.28,0.06 l 0,-0.52 c -1e-5,-0.30666 -0.0333,-0.60666 -0.1,-0.9 -0.0667,-0.30666 -0.18668,-0.57333 -0.36,-0.8 -0.17334,-0.23999 -0.41334,-0.42666 -0.72,-0.56 -0.29334,-0.14666 -0.68001,-0.21999 -1.16,-0.22 -0.61334,1e-5 -1.15334,0.0467 -1.62,0.14 -0.45334,0.08 -0.79334,0.16667 -1.02,0.26 l -0.22,-1.54 c 0.23999,-0.10666 0.63999,-0.20666 1.2,-0.3 0.55999,-0.10666 1.16666,-0.15999 1.82,-0.16"
             style="font-size:20px;font-weight:normal;font-family:Ubuntu;-inkscape-font-specification:Ubuntu"
             id="path9800-8-7-0" />
          <path
             inkscape:connector-curvature="0"
             d="m 126.78826,251.80628 c -1.14667,-0.0267 -1.96,-0.27334 -2.44,-0.74 -0.48,-0.46667 -0.72,-1.19333 -0.72,-2.18 l 0,-12.48 1.86,-0.32 0,12.5 c 0,0.30667 0.0267,0.56 0.08,0.76 0.0533,0.2 0.14,0.36 0.26,0.48 0.12,0.12 0.28,0.21333 0.48,0.28 0.19999,0.0533 0.44666,0.1 0.74,0.14 l -0.26,1.56"
             style="font-size:20px;font-weight:normal;font-family:Ubuntu;-inkscape-font-specification:Ubuntu"
             id="path9802-4-9-6" />
          <path
             inkscape:connector-curvature="0"
             d="m 132.33513,251.80628 c -1.14667,-0.0267 -1.96,-0.27334 -2.44,-0.74 -0.48,-0.46667 -0.72,-1.19333 -0.72,-2.18 l 0,-12.48 1.86,-0.32 0,12.5 c 0,0.30667 0.0267,0.56 0.08,0.76 0.0533,0.2 0.14,0.36 0.26,0.48 0.12,0.12 0.28,0.21333 0.48,0.28 0.2,0.0533 0.44667,0.1 0.74,0.14 l -0.26,1.56"
             style="font-size:20px;font-weight:normal;font-family:Ubuntu;-inkscape-font-specification:Ubuntu"
             id="path9804-8-5-1" />
          <path
             inkscape:connector-curvature="0"
             d="m 133.54201,253.54628 c 0.14667,0.0667 0.33333,0.12666 0.56,0.18 0.24,0.0667 0.47333,0.1 0.7,0.1 0.73333,0 1.30666,-0.16667 1.72,-0.5 0.41333,-0.32 0.78666,-0.84667 1.12,-1.58 -0.84,-1.6 -1.62667,-3.29333 -2.36,-5.08 -0.72,-1.8 -1.32,-3.61999 -1.8,-5.46 l 2,0 c 0.14666,0.60001 0.32,1.24667 0.52,1.94 0.21333,0.69334 0.44666,1.40667 0.7,2.14 0.25333,0.73334 0.52666,1.46667 0.82,2.2 0.29333,0.73333 0.59999,1.44 0.92,2.12 0.50666,-1.4 0.94666,-2.78666 1.32,-4.16 0.37333,-1.37333 0.72666,-2.78666 1.06,-4.24 l 1.92,0 c -0.48001,1.96001 -1.01334,3.84667 -1.6,5.66 -0.58667,1.8 -1.22001,3.48667 -1.9,5.06 -0.26667,0.6 -0.54667,1.11333 -0.84,1.54 -0.28001,0.44 -0.59334,0.79999 -0.94,1.08 -0.34667,0.27999 -0.74,0.48666 -1.18,0.62 -0.42667,0.13333 -0.91334,0.19999 -1.46,0.2 -0.14667,-1e-5 -0.3,-0.0133 -0.46,-0.04 -0.16,-0.0133 -0.32,-0.04 -0.48,-0.08 -0.14667,-0.0267 -0.28667,-0.06 -0.42,-0.1 -0.12,-0.04 -0.20667,-0.0733 -0.26,-0.1 l 0.34,-1.5"
             style="font-size:20px;font-weight:normal;font-family:Ubuntu;-inkscape-font-specification:Ubuntu"
             id="path9806-5-5-2" />
        </g>
      </g>
      <g
         transform="translate(-30,68.571432)"
         id="text4923"
         style="font-size:40px;font-style:normal;font-variant:normal;font-weight:bold;font-stretch:normal;line-height:125%;letter-spacing:0px;word-spacing:0px;fill:#000000;fill-opacity:1;stroke:none;font-family:Adelle Basic;-inkscape-font-specification:Adelle Basic Bold">
        <path
           inkscape:connector-curvature="0"
           id="path9457"
           style="font-family:Ubuntu;-inkscape-font-specification:Ubuntu Bold"
           d="m 769.24874,554.11532 c -0.96001,3e-5 -1.86667,0.12003 -2.72,0.36 -0.85334,0.24003 -1.8,0.62669 -2.84,1.16 l -1.68,-4.52 c 1.04,-0.66664 2.26666,-1.1733 3.68,-1.52 1.41333,-0.3733 2.79999,-0.55997 4.16,-0.56 1.70666,3e-5 3.10666,0.2267 4.2,0.68 1.11999,0.45337 1.99999,1.0267 2.64,1.72 0.63998,0.69336 1.07998,1.45336 1.32,2.28 0.26665,0.82669 0.39998,1.61336 0.4,2.36 -2e-5,0.74669 -0.12002,1.44002 -0.36,2.08 -0.21335,0.61336 -0.49335,1.18669 -0.84,1.72 -0.34668,0.53336 -0.74668,1.04002 -1.2,1.52 -0.45335,0.48002 -0.89335,0.93335 -1.32,1.36 -0.32001,0.32002 -0.65335,0.66669 -1,1.04 -0.34668,0.34668 -0.66668,0.72002 -0.96,1.12 -0.26668,0.40002 -0.49334,0.82668 -0.68,1.28 -0.18668,0.42668 -0.28001,0.86668 -0.28,1.32 -10e-6,0.10668 -10e-6,0.26668 0,0.48 -10e-6,0.21335 0.0133,0.40001 0.04,0.56 l -5.28,0 c -0.0533,-0.26665 -0.0933,-0.55999 -0.12,-0.88 0,-0.34665 0,-0.63998 0,-0.88 0,-0.74665 0.0933,-1.41332 0.28,-2 0.18666,-0.61332 0.42666,-1.17331 0.72,-1.68 0.31999,-0.53331 0.67999,-1.02665 1.08,-1.48 0.39999,-0.45331 0.81333,-0.89331 1.24,-1.32 0.61332,-0.61331 1.17332,-1.21331 1.68,-1.8 0.50666,-0.61331 0.75999,-1.30664 0.76,-2.08 -10e-6,-0.63997 -0.25334,-1.18664 -0.76,-1.64 -0.48001,-0.45331 -1.20001,-0.67997 -2.16,-0.68 m 3.72,20.12 c -10e-6,1.17334 -0.38668,2.08001 -1.16,2.72 -0.74668,0.64 -1.60001,0.96 -2.56,0.96 -0.96001,0 -1.82667,-0.32 -2.6,-0.96 -0.74667,-0.63999 -1.12,-1.54666 -1.12,-2.72 0,-1.17332 0.37333,-2.07999 1.12,-2.72 0.77333,-0.63999 1.63999,-0.95999 2.6,-0.96 0.95999,10e-6 1.81332,0.32001 2.56,0.96 0.77332,0.64001 1.15999,1.54668 1.16,2.72" />
      </g>
      <g
         transform="translate(-15,75.714286)"
         id="text4927"
         style="font-size:40px;font-style:normal;font-variant:normal;font-weight:bold;font-stretch:normal;line-height:125%;letter-spacing:0px;word-spacing:0px;fill:#000000;fill-opacity:1;stroke:none;font-family:Adelle Basic;-inkscape-font-specification:Adelle Basic Bold">
        <path
           inkscape:connector-curvature="0"
           id="path9454"
           style="font-family:Ubuntu;-inkscape-font-specification:Ubuntu Bold"
           d="m 676.31472,508.65848 c -0.96001,2e-5 -1.86667,0.12002 -2.72,0.36 -0.85334,0.24002 -1.8,0.62669 -2.84,1.16 l -1.68,-4.52 c 1.04,-0.66664 2.26666,-1.17331 3.68,-1.52 1.41333,-0.37331 2.79999,-0.55998 4.16,-0.56 1.70666,2e-5 3.10665,0.22669 4.2,0.68 1.11999,0.45336 1.99998,1.02669 2.64,1.72 0.63998,0.69336 1.07998,1.45335 1.32,2.28 0.26665,0.82669 0.39998,1.61335 0.4,2.36 -2e-5,0.74668 -0.12002,1.44002 -0.36,2.08 -0.21335,0.61335 -0.49335,1.18668 -0.84,1.72 -0.34668,0.53335 -0.74668,1.04001 -1.2,1.52 -0.45335,0.48001 -0.89335,0.93334 -1.32,1.36 -0.32001,0.32001 -0.65335,0.66668 -1,1.04 -0.34668,0.34668 -0.66668,0.72001 -0.96,1.12 -0.26668,0.40001 -0.49335,0.82667 -0.68,1.28 -0.18668,0.42667 -0.28001,0.86667 -0.28,1.32 -10e-6,0.10667 -10e-6,0.26667 0,0.48 -10e-6,0.21334 0.0133,0.40001 0.04,0.56 l -5.28,0 c -0.0533,-0.26666 -0.0933,-0.55999 -0.12,-0.88 -1e-5,-0.34666 -1e-5,-0.63999 0,-0.88 -1e-5,-0.74666 0.0933,-1.41332 0.28,-2 0.18666,-0.61332 0.42666,-1.17332 0.72,-1.68 0.31999,-0.53332 0.67999,-1.02665 1.08,-1.48 0.39999,-0.45332 0.81332,-0.89332 1.24,-1.32 0.61332,-0.61332 1.17332,-1.21332 1.68,-1.8 0.50666,-0.61332 0.75999,-1.30665 0.76,-2.08 -1e-5,-0.63998 -0.25334,-1.18665 -0.76,-1.64 -0.48001,-0.45331 -1.20001,-0.67998 -2.16,-0.68 m 3.72,20.12 c -10e-6,1.17333 -0.38668,2.08 -1.16,2.72 -0.74668,0.64 -1.60001,0.96 -2.56,0.96 -0.96001,0 -1.82667,-0.32 -2.6,-0.96 -0.74667,-0.64 -1.12001,-1.54667 -1.12,-2.72 -1e-5,-1.17333 0.37333,-2.08 1.12,-2.72 0.77333,-0.64 1.63999,-0.96 2.6,-0.96 0.95999,0 1.81332,0.32 2.56,0.96 0.77332,0.64 1.15999,1.54667 1.16,2.72" />
      </g>
    </g>
  </g>
</svg>
